{
  "accessors": [
    {
      "bufferView": 2,
      "componentType": 5126,
      "count": 3312,
      "max": [
        29.85931968688965,
        2.343290090560913,
        14.953619956970215
      ],
      "min": [
        -28.52001953125,
        -2.2249701023101807,
        -11.861969947814941
      ],
      "type": "VEC3"
    },
    {
      "bufferView": 2,
      "byteOffset": 39744,
      "componentType": 5126,
      "count": 3312,
      "max": [
        1.0,
        1.0,
        1.0
      ],
      "min": [
        -1.0,
        -1.0,
        -1.0
      ],
      "type": "VEC3"
    },
    {
      "bufferView": 1,
      "componentType": 5126,
      "count": 3312,
      "max": [
        0.9994999766349792,
        0.998769998550415
      ],
      "min": [
        0.0018500000005587935,
        0.00014000000373926014
      ],
      "type": "VEC2"
    },
    {
      "bufferView": 0,
      "componentType": 5125,
      "count": 14100,
      "type": "SCALAR"
    },
    {
      "bufferView": 2,
      "byteOffset": 79488,
      "componentType": 5126,
      "count": 1643,
      "max": [
        33.069889068603516,
        0.29813000559806824,
        17.20973014831543
      ],
      "min": [
        -29.881439208984375,
        -0.2980499863624573,
        -12.840579986572266
      ],
      "type": "VEC3"
    },
    {
      "bufferView": 2,
      "byteOffset": 99204,
      "componentType": 5126,
      "count": 1643,
      "max": [
        1.0,
        0.8926527500152588,
        1.0
      ],
      "min": [
        -1.0,
        -0.8926527500152588,
        -1.0
      ],
      "type": "VEC3"
    },
    {
      "bufferView": 1,
      "byteOffset": 26496,
      "componentType": 5126,
      "count": 1643,
      "max": [
        0.0,
        0.0
      ],
      "min": [
        0.0,
        0.0
      ],
      "type": "VEC2"
    },
    {
      "bufferView": 0,
      "byteOffset": 56400,
      "componentType": 5125,
      "count": 8442,
      "type": "SCALAR"
    }
  ],
  "asset": {
    "extras": {
      "author": "luyssport (https://sketchfab.com/luyssport)",
      "license": "CC-BY-NC-SA-4.0 (http://creativecommons.org/licenses/by-nc-sa/4.0/)",
      "source": "https://sketchfab.com/3d-models/stone-kit-258d3981892447499c4fd3df4ee51d6b",
      "title": "Stone Kit"
    },
    "generator": "Sketchfab-12.68.0",
    "version": "2.0"
  },
  "bufferViews": [
    {
      "buffer": 0,
      "byteLength": 90168,
      "name": "floatBufferViews",
      "target": 34963
    },
    {
      "buffer": 0,
      "byteLength": 39640,
      "byteOffset": 90168,
      "byteStride": 8,
      "name": "floatBufferViews",
      "target": 34962
    },
    {
      "buffer": 0,
      "byteLength": 118920,
      "byteOffset": 129808,
      "byteStride": 12,
      "name": "floatBufferViews",
      "target": 34962
    }
  ],
  "buffers": [
    {
      "byteLength": 248728,
      "uri": "scene.bin"
    }
  ],
  "images": [
    {
      "uri": "textures/stone_baseColor.jpeg"
    }
  ],
  "materials": [
    {
      "doubleSided": true,
      "name": "plastic",
      "pbrMetallicRoughness": {
        "baseColorFactor": [
          0.25015244275195203,
          0.25015244275195203,
          0.25015244275195203,
          1.0
        ],
        "metallicFactor": 0.0,
        "roughnessFactor": 0.3797637195121951
      }
    },
    {
      "name": "stone",
      "pbrMetallicRoughness": {
        "baseColorTexture": {
          "index": 0
        },
        "metallicFactor": 0.0
      }
    }
  ],
  "meshes": [
    {
      "name": "stone_0",
      "primitives": [
        {
          "attributes": {
            "NORMAL": 1,
            "POSITION": 0,
            "TEXCOORD_0": 2
          },
          "indices": 3,
          "material": 1,
          "mode": 4
        }
      ]
    },
    {
      "name": "Cube.001_0",
      "primitives": [
        {
          "attributes": {
            "NORMAL": 5,
            "POSITION": 4,
            "TEXCOORD_0": 6
          },
          "indices": 7,
          "material": 0,
          "mode": 4
        }
      ]
    }
  ],
  "nodes": [
    {
      "children": [
        1
      ],
      "matrix": [
        1.0,
        0.0,
        0.0,
        0.0,
        0.0,
        2.220446049250313e-16,
        -1.0,
        0.0,
        0.0,
        1.0,
        2.220446049250313e-16,
        0.0,
        0.0,
        0.0,
        0.0,
        1.0
      ],
      "name": "Sketchfab_model"
    },
    {
      "children": [
        2,
        4,
        6,
        8,
        10
      ],
      "name": "Root"
    },
    {
      "children": [
        3
      ],
      "matrix": [
        1.0,
        0.0,
        0.0,
        0.0,
        0.0,
        1.0,
        0.0,
        0.0,
        0.0,
        0.0,
        1.0,
        0.0,
        0.44822000000000006,
        0.24727000000000002,
        -0.53526,
        1.0
      ],
      "name": "stone"
    },
    {
      "mesh": 0,
      "name": "stone_0"
    },
    {
      "children": [
        5
      ],
      "matrix": [
        1.0,
        0.0,
        0.0,
        0.0,
        0.0,
        1.0,
        0.0,
        0.0,
        0.0,
        0.0,
        1.0,
        0.0,
        -1.11844,
        0.28133,
        -1.1294,
        1.0
      ],
      "name": "Cube.001"
    },
    {
      "mesh": 1,
      "name": "Cube.001_0"
    },
    {
      "children": [
        7
      ],
      "matrix": [
        0.49552000000000007,
        0.85548,
        0.15035,
        0.0,
        -0.42378000000000005,
        0.08702000000000003,
        0.9015799999999999,
        0.0,
        0.7582000000000001,
        -0.5104599999999999,
        0.40566,
        0.0,
        0.0,
        -14.211049999999998,
        16.806980000000003,
        1.0
      ],
      "name": "Sun"
    },
    {
      "name": "Sun"
    },
    {
      "children": [
        9
      ],
      "matrix": [
        1.0,
        0.0,
        0.0,
        0.0,
        0.0,
        2.6569,
        0.0,
        0.0,
        0.0,
        0.0,
        1.0,
        0.0,
        0.0,
        33.358079999999994,
        0.0,
        1.0
      ],
      "name": "Point"
    },
    {
      "name": "Point"
    },
    {
      "children": [
        11
      ],
      "matrix": [
        -0.012550000000000002,
        -0.0,
        0.99992,
        0.0,
        0.0,
        1.0,
        0.0,
        0.0,
        -0.99992,
        0.0,
        -0.012550000000000002,
        0.0,
        -70.60342999999999,
        0.0,
        0.0,
        1.0
      ],
      "name": "Hemi"
    },
    {
      "name": "Hemi"
    }
  ],
  "samplers": [
    {
      "magFilter": 9729,
      "minFilter": 9987,
      "wrapS": 10497,
      "wrapT": 10497
    }
  ],
  "scene": 0,
  "scenes": [
    {
      "name": "Sketchfab_Scene",
      "nodes": [
        0
      ]
    }
  ],
  "textures": [
    {
      "sampler": 0,
      "source": 0
    }
  ]
}
